<?xml version="1.0" encoding="UTF-8" standalone="no"?>
<svg
   xmlns:dc="http://purl.org/dc/elements/1.1/"
   xmlns:cc="http://creativecommons.org/ns#"
   xmlns:rdf="http://www.w3.org/1999/02/22-rdf-syntax-ns#"
   xmlns:svg="http://www.w3.org/2000/svg"
   xmlns="http://www.w3.org/2000/svg"
   xmlns:sodipodi="http://sodipodi.sourceforge.net/DTD/sodipodi-0.dtd"
   xmlns:inkscape="http://www.inkscape.org/namespaces/inkscape"
   viewBox="0 0 108.42315 106.69862"
   version="1.1"
   id="svg5383"
   sodipodi:docname="logo-icon.svg"
   inkscape:version="0.92.2 5c3e80d, 2017-08-06"
   width="108.42315"
   height="106.69862">
  <metadata
     id="metadata5387">
    <rdf:RDF>
      <cc:Work
         rdf:about="">
        <dc:format>image/svg+xml</dc:format>
        <dc:type
           rdf:resource="http://purl.org/dc/dcmitype/StillImage" />
        <dc:title>style-guide</dc:title>
      </cc:Work>
    </rdf:RDF>
  </metadata>
  <sodipodi:namedview
     pagecolor="#ffffff"
     bordercolor="#666666"
     borderopacity="1"
     objecttolerance="10"
     gridtolerance="10"
     guidetolerance="10"
     inkscape:pageopacity="0"
     inkscape:pageshadow="2"
     inkscape:window-width="1280"
     inkscape:window-height="773"
     id="namedview5385"
     showgrid="false"
     inkscape:zoom="0.37754386"
     inkscape:cx="89.684243"
     inkscape:cy="-429.5"
     inkscape:window-x="0"
     inkscape:window-y="27"
     inkscape:window-maximized="1"
     inkscape:current-layer="svg5383" />
  <defs
     id="defs4565">
    <style
       id="style4563">.cls-1,.cls-53{fill:#f0edee;}.cls-2{font-size:48px;font-family:CooperBlackStd, Cooper Std;}.cls-2,.cls-51{fill:#0a090c;}.cls-17,.cls-22,.cls-27,.cls-3{font-size:18px;}.cls-18,.cls-19,.cls-20,.cls-21,.cls-23,.cls-24,.cls-25,.cls-26,.cls-28,.cls-3{fill:#6d6e70;}.cls-17,.cls-22,.cls-27,.cls-29,.cls-3,.cls-35,.cls-55{font-family:Omnes-Regular, Omnes;}.cls-28,.cls-4{letter-spacing:-0.02em;}.cls-19,.cls-23,.cls-5{letter-spacing:0em;}.cls-6{letter-spacing:0.01em;}.cls-21,.cls-7{letter-spacing:-0.01em;}.cls-13,.cls-25,.cls-8{letter-spacing:-0.01em;}.cls-9{letter-spacing:-0.05em;}.cls-10{letter-spacing:0em;}.cls-11{letter-spacing:-0.02em;}.cls-12,.cls-13,.cls-23,.cls-24,.cls-25,.cls-26{font-family:Omnes-Italic, Omnes;font-style:italic;}.cls-14,.cls-26{letter-spacing:0.02em;}.cls-15{font-size:36px;}.cls-16{letter-spacing:0.01em;}.cls-17,.cls-50{fill:#044389;}.cls-20{letter-spacing:-0.02em;}.cls-22{fill:#420039;}.cls-27{fill:#ed1c24;}.cls-29{font-size:24px;}.cls-30{letter-spacing:0.02em;}.cls-31{letter-spacing:0em;}.cls-32{letter-spacing:-0.05em;}.cls-33{letter-spacing:0em;}.cls-34{fill:#fff;opacity:0.5;}.cls-35,.cls-55{opacity:0.3;font-size:16px;}.cls-36{letter-spacing:0.01em;}.cls-37{letter-spacing:0em;}.cls-38{letter-spacing:-0.01em;}.cls-39{letter-spacing:-0.02em;}.cls-40{letter-spacing:0em;}.cls-41{letter-spacing:0em;}.cls-42{letter-spacing:-0.03em;}.cls-43{letter-spacing:-0.01em;}.cls-44{letter-spacing:-0.01em;}.cls-45{letter-spacing:-0.05em;}.cls-46{letter-spacing:-0.07em;}.cls-47{letter-spacing:0.01em;}.cls-48{letter-spacing:-0.02em;}.cls-49{letter-spacing:-0.05em;}.cls-52{fill:#edae49;}.cls-53{stroke:#0a090c;stroke-miterlimit:10;stroke-opacity:0.5;stroke-width:0.5px;}.cls-54{fill:#104f55;}.cls-55,.cls-65{letter-spacing:0.01em;}.cls-56{letter-spacing:-0.02em;}.cls-57{letter-spacing:0.01em;}.cls-58{letter-spacing:0.01em;}.cls-59{letter-spacing:0em;}.cls-60{letter-spacing:0.01em;}.cls-61{letter-spacing:-0.03em;}.cls-62{letter-spacing:0.01em;}.cls-63{letter-spacing:-0.01em;}.cls-64{letter-spacing:0em;}.cls-66{letter-spacing:0.02em;}.cls-67{letter-spacing:0.01em;}.cls-68{letter-spacing:0.01em;}.cls-69{letter-spacing:0.01em;}.cls-70{letter-spacing:0.01em;}.cls-71{letter-spacing:-0.02em;}.cls-72{letter-spacing:0em;}.cls-73{letter-spacing:-0.01em;}.cls-74{letter-spacing:0em;}.cls-75{letter-spacing:0.01em;}.cls-76{letter-spacing:0.01em;}.cls-77{letter-spacing:-0.03em;}.cls-78{letter-spacing:0em;}.cls-79{letter-spacing:-0.05em;}.cls-80{letter-spacing:-0.01em;}</style>
  </defs>
  <title
     id="title4567">style-guide</title>
  <g
     id="Layer_2"
     data-name="Layer 2"
     transform="translate(-610.31576,-176.30139)">
    <path
       class="cls-51"
       d="m 674.42,198.25 a 1.62,1.62 0 0 0 -1.68,1 c -0.55,1.65 2.16,2.53 2.57,0.81 0.14,-0.62 -0.23,-1.73 -0.89,-1.81 z m 4.39,9.75 a 0.86,0.86 0 0 0 1,-0.66 c 0.06,-0.21 -0.15,-1.13 -0.53,-0.94 -0.84,-0.46 -1.53,1.26 -0.47,1.6 z m -21.15,8.2 a 14.72,14.72 0 0 1 -0.91,-1.62 11.86,11.86 0 0 1 0,-10.55 c 0.12,-0.28 0.7,-1.31 0,-0.79 a 4.66,4.66 0 0 0 -0.92,0.89 6.1,6.1 0 0 0 -1.11,2.48 11.83,11.83 0 0 0 0.29,5.73 11.37,11.37 0 0 0 1.23,2.82 9,9 0 0 0 1,1.34 c 0.14,0.16 0.88,1 1.1,0.93 0.12,0.13 0.17,-0.05 0.17,-0.12 a 1.69,1.69 0 0 0 -0.2,-0.27 q -0.37,-0.42 -0.65,-0.85 z m -0.32,4.88 c 0,-0.13 -0.12,-0.76 -0.25,-0.81 -0.31,-0.12 -0.87,0.81 -1,1.05 a 4.47,4.47 0 0 0 -0.35,3.11 4.6,4.6 0 0 0 0.6,1.43 4,4 0 0 0 0.45,0.58 c 0.14,0.14 0.58,0.43 0.66,0 a 13,13 0 0 0 0.07,-4.4 q -0.07,-0.48 -0.18,-0.97 z M 672,197.92 c 0.07,-0.63 -0.26,-1.39 -1,-1.37 -0.74,0.02 -1.54,0.28 -1.69,1 a 1.24,1.24 0 0 0 1.08,1.55 1.45,1.45 0 0 0 1.61,-1.18 z m -0.46,2.05 c -0.44,0 -0.92,0.6 -1,1 a 0.78,0.78 0 0 0 0.78,1 1,1 0 0 0 1,-1 C 672.3,200.56 671.94,200 671.54,200 Z m 6.46,20.8 c -0.1,-0.08 -0.51,-0.41 -0.63,-0.4 -0.12,0.01 -0.28,0.32 -0.33,0.44 a 4.54,4.54 0 0 0 -0.22,1.84 11.88,11.88 0 0 0 0.18,2.35 c 0,0.21 0.48,2.11 1,1.49 1.18,-1.49 1.66,-4.41 0,-5.72 z m -0.51,-19.62 c 0.23,-1 -1.24,-1.33 -1.65,-0.47 -0.51,1.05 1.37,1.71 1.65,0.47 z m 40.89,34.71 c -3.58,-15.69 -3.21,-15.77 -6.79,-31.46 -1.21,-5.32 -6,-9.17 -10.89,-11.53 -14.5,-7 -13.94,-8.15 -28.43,-15.13 -4.92,-2.37 -11,-1.6 -15.92,0.77 -14.5,7 -14.1,7.8 -28.6,14.79 -4.92,2.37 -9.2,5.95 -10.41,11.26 -3.58,15.69 -3,15.82 -6.59,31.51 a 17.3,17.3 0 0 0 3.52,14.86 c 10,12.58 10.37,12.32 20.4,24.9 3.4,4.27 7.91,7.17 13.37,7.17 16.09,0 16.09,-0.94 32.18,-0.94 5.46,0 10.65,-1.41 14.06,-5.67 10,-12.58 9.92,-12.67 20,-25.25 3.34,-4.29 5.31,-9.96 4.1,-15.28 z m -17.28,-5.7 a 1.75,1.75 0 0 1 -2.65,0.76 1.43,1.43 0 0 1 -0.49,-1.46 c 0.14,-0.54 0.6,-1 0.52,-1.62 -0.24,0.14 -1.12,0 -0.94,-0.4 -0.73,0 -0.7,0.43 -1.13,0.88 a 3.69,3.69 0 0 1 -1.08,0.69 1.44,1.44 0 0 1 -0.49,0.18 c -0.23,0 -0.28,-0.13 -0.44,-0.27 -0.12,0.25 -0.4,0.43 -0.54,0.69 0.74,0.35 -1,2.52 -1.64,1.73 -0.1,0.18 -0.34,0.26 -0.47,0.42 -0.13,0.16 -0.18,0.21 -0.18,0.28 0,0.07 0.08,0.05 0.1,0.17 a 1.72,1.72 0 0 1 -0.29,1.06 c -0.29,0.48 -1,1.41 -1.65,1.19 a 2.68,2.68 0 0 1 -0.14,1.14 c -0.11,0.2 -0.15,0.16 -0.4,0.16 h -0.53 a 9.27,9.27 0 0 1 -1.92,-0.47 6.7,6.7 0 0 1 -1.84,-0.91 c -0.09,-0.06 -0.61,-0.55 -0.64,-0.53 -0.03,0.02 0.27,0.42 0.33,0.49 a 10.48,10.48 0 0 0 4.76,1.86 5.68,5.68 0 0 1 1.73,0.41 9.22,9.22 0 0 1 5.32,4.48 c 0.74,1.7 0.72,4.4 -1.2,5.35 a 3,3 0 0 1 -2.9,-0.22 c -0.42,-0.31 -0.85,-0.9 -0.61,-1.44 0.17,-0.38 0.67,-0.58 0.72,-1 -0.67,0.23 -1.22,-0.92 -1.43,-1.4 a 1.09,1.09 0 0 1 -0.13,-0.59 c 0,-0.23 0.11,-0.18 0.27,-0.3 0.16,-0.12 0.17,-0.1 0,-0.28 a 1.19,1.19 0 0 0 -0.43,-0.29 c -0.3,-0.15 -0.44,-0.25 -0.6,0.06 -0.16,0.31 -0.09,0.22 -0.29,0.27 a 1.94,1.94 0 0 1 -0.95,0 1.62,1.62 0 0 1 -0.92,-0.49 c -0.25,-0.31 -0.14,-0.41 0,-0.76 -0.18,0 -0.5,-0.27 -0.69,-0.17 0,0 -0.11,0.23 -0.17,0.28 a 1.29,1.29 0 0 1 -0.89,0.22 2.27,2.27 0 0 1 -1.34,-0.39 c -0.11,-0.08 -0.26,-0.13 -0.29,-0.25 -0.03,-0.12 0.13,-0.47 0.2,-0.62 -0.26,0 -0.5,-0.2 -0.76,-0.24 -0.26,-0.04 -0.5,0.08 -0.75,0.06 0.1,0.47 0,0.7 -0.41,0.87 a 2.16,2.16 0 0 1 -1.05,0 1.83,1.83 0 0 1 -0.94,-0.32 0.73,0.73 0 0 1 -0.23,-0.38 c 0,-0.15 0,-0.17 0,-0.3 a 1,1 0 0 0 -0.26,-0.21 2.34,2.34 0 0 0 -0.6,-0.31 c -0.3,-0.1 -0.41,-0.06 -0.55,-0.34 -0.24,-0.47 -0.52,-0.93 -0.8,-1.39 a 12.09,12.09 0 0 0 -1.73,-2.32 5.2,5.2 0 0 1 0.45,0.82 l 0.57,1 c 0.34,0.57 0.66,1.14 1,1.74 a 6.66,6.66 0 0 1 0.48,0.95 4,4 0 0 1 0,1.15 c 0,0.7 -0.13,1.41 -0.17,2.11 a 17.45,17.45 0 0 0 0,4.04 13.13,13.13 0 0 0 1,3.15 c 0.64,1.36 2.62,4.7 4.35,2.88 a 2.74,2.74 0 0 1 2.43,-1.13 3.4,3.4 0 0 1 2.12,1.6 2.86,2.86 0 0 1 0,2.67 c -0.36,0.77 -1.28,1.8 -2.23,1.72 a 1.51,1.51 0 0 1 0,0.38 0.11,0.11 0 0 1 -0.18,0.06 1.33,1.33 0 0 1 -0.43,0.33 1.82,1.82 0 0 1 -1,0.05 0.87,0.87 0 0 1 -0.42,-0.18 c -0.13,-0.12 -0.1,-0.25 -0.19,-0.38 -0.09,-0.13 -0.58,-0.24 -0.83,-0.23 h -0.22 q -0.18,0 -0.16,0.13 c -0.12,0.11 -0.07,0.13 -0.25,0.23 a 1.22,1.22 0 0 1 -1.15,0.05 1.84,1.84 0 0 1 -0.84,-0.64 c -0.18,-0.27 -0.33,-0.63 0.06,-0.67 a 1.21,1.21 0 0 0 -0.39,-0.55 c -0.32,-0.24 -0.27,0 -0.55,0.13 a 1.54,1.54 0 0 1 -1.32,-0.26 2.58,2.58 0 0 1 -1,-0.87 1.23,1.23 0 0 1 -0.16,-0.54 c 0,-0.19 0.29,-0.21 0.33,-0.34 0.04,-0.13 -0.21,-0.51 -0.28,-0.59 -0.07,-0.08 -0.11,-0.12 -0.35,-0.08 -0.41,0.08 -0.76,-0.27 -1,-0.59 a 2.81,2.81 0 0 1 -0.42,-1.14 c -0.06,-0.53 0.08,-0.56 0.49,-0.8 -0.18,-0.26 -0.56,-0.93 -0.87,-0.91 -0.31,0.02 -0.17,0.24 -0.47,0 a 1.05,1.05 0 0 1 -0.32,-0.41 2.45,2.45 0 0 1 -0.3,-1 c 0,-0.46 0.19,-0.48 0.56,-0.44 a 3.4,3.4 0 0 0 -0.29,-1.43 c -0.3,0.11 -0.3,0.21 -0.57,0.13 a 1.15,1.15 0 0 1 -0.6,-0.34 2.16,2.16 0 0 1 -0.57,-1.23 c 0,-0.15 0,-0.47 0.09,-0.58 0.09,-0.11 0.36,0 0.44,-0.16 0.2,-0.48 -0.41,-1.06 -0.63,-1.41 -0.28,0.18 -0.31,0.54 -0.59,0.17 a 2,2 0 0 1 -0.31,-0.66 c -0.09,-0.29 -0.47,-1.36 0,-1.3 a 5.43,5.43 0 0 0 -0.5,-1.6 c -0.23,-0.42 -0.65,-0.72 -0.87,-1.13 -0.13,-0.24 -0.79,-2.93 -1,-2.86 a 12.69,12.69 0 0 1 0.55,2.22 c 0.07,0.77 0.12,1.53 0.13,2.3 a 10.36,10.36 0 0 1 -0.19,2.55 11.72,11.72 0 0 1 -0.87,2.05 10.3,10.3 0 0 0 -0.76,2.11 5.46,5.46 0 0 0 0.17,2 19.43,19.43 0 0 1 0.65,4.3 c -0.05,1.43 -0.76,2.73 -0.69,4.2 a 3.7,3.7 0 0 0 0.54,1.87 4.37,4.37 0 0 0 0.55,0.67 2.65,2.65 0 0 1 0.41,0.65 c 0.55,1 1.12,2.2 0.54,3.29 a 2.18,2.18 0 0 1 -2.66,1.19 c -2.31,-0.72 -3.69,-3.43 -3.48,-5.73 q 0,0 0,0 c 0.1,-0.46 0.14,-0.92 0.26,-1.37 0.12,-0.45 0.27,-1 0.36,-1.47 a 11.5,11.5 0 0 0 0.26,-2.95 9.71,9.71 0 0 0 -0.49,-2.33 c -0.23,-0.69 -0.62,-1.26 -0.91,-1.93 a 11.55,11.55 0 0 1 -0.86,-4.35 q 0,-0.6 0,-1.2 a 6.52,6.52 0 0 1 0.28,-1.07 18.81,18.81 0 0 0 0.27,-2.29 10.88,10.88 0 0 1 0.49,-2.25 6.7,6.7 0 0 1 0.89,-1.92 9,9 0 0 0 -1.85,4.24 19.73,19.73 0 0 0 -0.25,2.26 c 0,0.27 0,0.4 -0.16,0.59 a 3,3 0 0 1 -0.39,0.28 11.08,11.08 0 0 0 -0.91,0.85 l -0.18,0.18 q -0.2,0.09 -0.08,0.27 a 1.47,1.47 0 0 1 -0.29,0.46 2.26,2.26 0 0 1 -0.8,0.64 1,1 0 0 1 -0.89,0 c -0.14,-0.1 -0.12,-0.3 -0.24,-0.41 -0.12,-0.11 -0.28,0 -0.43,0.09 l -0.22,0.13 q -0.16,0 -0.09,0.15 c -0.06,0.11 -0.09,0.24 -0.15,0.36 a 1.87,1.87 0 0 1 -0.68,0.67 c -0.46,0.3 -1.29,0.76 -1.67,0.18 -0.14,0.15 -0.43,0.22 -0.6,0.33 0.26,0.33 0.32,0.49 0,0.87 a 3.67,3.67 0 0 1 -1,0.86 1.23,1.23 0 0 1 -0.81,0.19 c -0.19,0 -0.21,-0.21 -0.37,-0.26 -0.43,-0.15 -0.77,0.69 -0.93,1 0.45,0.19 0.56,0.43 0.42,0.93 a 1.72,1.72 0 0 1 -0.7,1 c -0.46,0.31 -0.43,0.11 -0.82,-0.13 -0.39,-0.24 -0.32,-0.12 -0.42,0.17 -0.1,0.29 -0.07,0.55 -0.16,0.8 0.58,0 0.82,0.94 0.84,1.41 a 0.79,0.79 0 0 1 -0.09,0.48 c -0.12,0.13 -0.18,0 -0.21,0.22 -0.03,0.22 0.27,0.53 0.44,0.67 0.49,0.41 0.91,0.67 1,1.34 a 2.24,2.24 0 0 1 -0.68,2 c -1.95,1.92 -5.75,0.56 -5.9,-2.21 a 11.63,11.63 0 0 1 0.32,-4.19 20.35,20.35 0 0 1 0.66,-2 c 0.3,-0.69 0.64,-1.37 1,-2 a 11.39,11.39 0 0 1 1.06,-1.82 c 0.2,-0.27 0.44,-0.48 0.66,-0.73 0.22,-0.25 0.4,-0.57 0.61,-0.84 a 11.86,11.86 0 0 1 3.17,-3 c 0.63,-0.38 1.31,-0.68 2,-1 0.33,-0.16 0.65,-0.33 1,-0.52 0.35,-0.19 0.52,-0.19 0.78,-0.34 a 5,5 0 0 0 1.33,-1.38 6,6 0 0 1 0.8,-0.92 c 0.14,-0.12 0.46,-0.51 0.59,-0.56 a 3.54,3.54 0 0 0 -1.35,1.24 4.66,4.66 0 0 1 -1.63,1.27 4,4 0 0 1 -2.14,0 c -0.34,0 -0.68,-0.08 -1,-0.09 -0.19,0 -0.92,0.16 -1.07,0.07 0.14,0.56 -1.11,0.8 -1.53,0.84 a 1.41,1.41 0 0 1 -1,-0.24 c -0.16,-0.15 -0.11,-0.18 -0.1,-0.45 -0.14,0.11 -0.76,-0.12 -1,-0.07 -0.24,0.05 -0.7,0.22 -0.62,0.42 0.08,0.2 0.25,0 0.13,0.39 a 1.86,1.86 0 0 1 -0.43,0.66 1.91,1.91 0 0 1 -1.58,0.63 0.59,0.59 0 0 1 -0.3,-0.14 c -0.16,-0.1 -0.07,-0.11 -0.26,-0.12 -0.36,0 -0.67,0.28 -1,0.42 0.79,1.14 -1.89,2.64 -2.22,1.6 -0.09,0.1 -0.34,0.11 -0.46,0.17 -0.12,0.06 -0.28,0.22 -0.44,0.31 0.23,0.29 0.21,0.48 0,0.85 a 1.88,1.88 0 0 1 -0.83,0.7 1.31,1.31 0 0 1 -0.86,0.07 3.15,3.15 0 0 0 -1.3,0.34 c 0.19,0.29 -0.66,0.79 -0.87,0.89 -0.21,0.1 -1.1,0.38 -1.32,0 -0.11,-0.2 0.07,-0.29 -0.25,-0.29 a 2.66,2.66 0 0 0 -0.94,0.24 1.22,1.22 0 0 0 -0.36,0.15 c -0.09,0.09 -0.09,0.18 -0.15,0.29 a 0.72,0.72 0 0 1 -0.65,0.4 2.33,2.33 0 0 1 -1.4,-0.46 c -0.2,-0.18 -0.2,-0.32 -0.27,-0.55 -0.07,-0.23 -0.1,-0.39 -0.27,-0.41 0.06,0 -0.31,0.16 -0.33,0.16 a 0.92,0.92 0 0 1 -0.47,-0.06 2,2 0 0 1 -0.65,-0.45 c -0.26,-0.25 -0.67,-0.72 -0.32,-1 -0.55,-0.51 -1.28,-0.79 -1.85,-1.28 a 3.06,3.06 0 0 1 -0.94,-1.92 2.26,2.26 0 0 1 2,-2.8 2.3,2.3 0 0 1 1.54,0.36 2.43,2.43 0 0 1 0.78,1.59 c 0.18,1.06 0.19,2.6 1.62,2.69 2.69,0.18 4.71,-1.72 6.55,-3.41 a 17.1,17.1 0 0 1 3.5,-2.61 30.42,30.42 0 0 0 4.05,-2.09 3,3 0 0 1 1.8,-0.48 c 0.71,0 1.41,0 2.12,-0.09 a 6.79,6.79 0 0 0 2.16,-0.49 c 0.15,-0.07 1.57,-1.06 1.33,-1.23 0,0 -0.58,0.5 -0.68,0.57 a 4.18,4.18 0 0 1 -0.87,0.45 7.38,7.38 0 0 1 -1.83,0.41 17.21,17.21 0 0 1 -2,0.1 7.52,7.52 0 0 0 -1,0 c -0.21,0 -0.41,0.11 -0.62,0.14 L 648,235 l -0.19,-0.11 c -0.21,0 -0.23,0.33 -0.56,0.32 a 1.25,1.25 0 0 1 -0.72,-0.4 c -0.12,-0.12 -0.29,-0.29 -0.29,-0.48 a 0.69,0.69 0 0 1 0.09,-0.23 c 0,-0.42 -0.46,-0.16 -0.69,-0.2 a 1.35,1.35 0 0 1 -1,-1 c 0,-0.16 0.08,-0.23 0.12,-0.37 0.04,-0.14 0.14,-0.13 -0.06,-0.34 -0.2,-0.21 -0.5,-0.31 -0.66,-0.52 -0.32,0.68 -1.37,-0.2 -1.68,-0.54 a 1.61,1.61 0 0 1 -0.38,-0.52 q 0,-0.17 0,-0.35 0,-0.18 0.14,-0.23 c 0,-0.32 -0.4,-0.42 -0.61,-0.55 -0.09,0.22 -0.57,0.31 -0.8,0.32 a 1.7,1.7 0 0 1 -0.89,-0.21 c -0.38,-0.21 -0.78,-0.68 -0.62,-1.14 a 2.49,2.49 0 0 0 -0.69,-0.07 c -0.22,0 -0.29,0.17 -0.46,0.29 0.57,0.69 -0.72,1.62 -1.39,1.48 -0.2,0 -0.19,-0.17 -0.33,-0.26 -0.14,-0.09 -0.07,-0.16 -0.24,-0.06 a 0.77,0.77 0 0 0 -0.13,0.18 1.71,1.71 0 0 0 -0.26,0.91 c 0,1.4 1.23,2.74 0.7,4.16 a 2.3,2.3 0 0 1 -1.6,1.51 2.76,2.76 0 0 1 -1.48,-0.08 4.77,4.77 0 0 1 -1.2,-0.43 c -1.69,-1 -2,-3.33 -1.38,-5.07 a 7.77,7.77 0 0 1 0.54,-1.09 6.29,6.29 0 0 1 0.8,-1.17 20.88,20.88 0 0 1 2,-2 9.93,9.93 0 0 1 1.28,-1 c 0.33,-0.21 0.61,-0.45 0.93,-0.66 a 3.88,3.88 0 0 1 2,-0.53 9.85,9.85 0 0 1 4.87,1.41 28.92,28.92 0 0 1 4.39,3.4 9,9 0 0 0 2.15,1.39 3.26,3.26 0 0 0 1.35,0.36 7,7 0 0 0 1.29,-0.16 8.81,8.81 0 0 0 4.32,-2.7 7.51,7.51 0 0 1 -1.71,-1.63 4.93,4.93 0 0 1 -0.69,-4.86 8.63,8.63 0 0 1 0.64,-1.43 3.06,3.06 0 0 0 0.36,-0.59 c 0,-0.13 -0.16,-0.38 -0.24,-0.55 -0.44,-0.88 -0.85,-1.78 -1.23,-2.69 -1.47,-3.57 -2.39,-7.6 -1.23,-11.4 a 16.51,16.51 0 0 1 6.2,-8.3 14.73,14.73 0 0 1 10.55,-2.1 15.32,15.32 0 0 1 5.4,1.46 11.29,11.29 0 0 1 3.57,3.46 15.19,15.19 0 0 1 2.35,4.94 23.43,23.43 0 0 1 0.63,5.67 c 0,1.91 0.11,4.06 -0.65,5.85 a 11.52,11.52 0 0 1 -1.44,2.11 c -0.15,0.21 -0.64,0.81 -0.61,1.08 0.03,0.27 0.7,0.61 0.87,0.81 a 5.06,5.06 0 0 1 1,4.69 8.85,8.85 0 0 1 -1.08,2.06 c -0.22,0.35 -0.45,0.7 -0.65,1.07 -0.2,0.37 -0.16,0.25 -0.08,0.52 0.08,0.27 0.13,0.4 0.2,0.6 a 4,4 0 0 0 4.1,2.74 c 1.95,-0.13 3.33,-1.39 4.85,-2.44 1.68,-1.16 3.29,-2.45 5.05,-3.53 1.76,-1.08 3.65,-2.19 5.61,-1.23 a 4.64,4.64 0 0 1 2.67,5.59 z m -23.69,-18 a 1.72,1.72 0 0 0 2.18,-0.7 2.16,2.16 0 0 0 -0.74,-2.62 1.77,1.77 0 0 0 -2.41,0.91 1.87,1.87 0 0 0 0.96,2.44 z m 1.74,-7.84 a 1.61,1.61 0 0 0 -1.28,-1.66 1.55,1.55 0 0 0 -1.72,1.32 c -0.32,1.88 2.85,2.31 2.99,0.37 z"
       id="path5360"
       inkscape:connector-curvature="0"
       style="fill:#0a090c" />
  </g>
</svg>
